<svg xmlns="http://www.w3.org/2000/svg" width="129.015" height="21.313" viewBox="0 0 129.015 21.313"><path d="M50.851,171.17H49.812v1.04h1.04v-1.04Z" transform="translate(-46.694 -164.961)" fill="#005e7a"/><rect width="1.039" height="1.039" transform="translate(5.197 14.524)" fill="#005e7a"/><rect width="1.04" height="1.04" transform="translate(2.079 8.288)" fill="#005e7a"/><path d="M44.335,176.676h-.029v1.04h2.079v-1.04Z" transform="translate(-44.306 -167.349)" fill="#005e7a"/><path d="M73.719,183.709l9.355,2.075v-4.468l-9.355-2.806Z" transform="translate(-57.061 -168.144)" fill="#00adef"/><path d="M97.33,191.965l-1.483-.86,1.483,2.053,1.483-2.053Z" transform="translate(-66.658 -173.606)" fill="#00adef"/><path d="M98.813,188.535,97.33,186.15l-1.483,2.385,1.483.862Z" transform="translate(-66.658 -171.458)" fill="#00adef"/><path d="M88.243,175.141v-4.594l2.069-1.035-16.594-9.3v9.325l10.394,3.12,3.09-1.586v4.1l.529-.849Z" transform="translate(-57.061 -160.207)" fill="#00adef"/><path d="M65.739,183.668V178.51l-9.351,2.805v.314H57.4v1.039h1.039v1.04H57.4v-1.04h-1.01v1.04H55.318v2.079h1.04v-1.04H57.4v.814l2.078-.462v-1.391h1.04v1.159l5.224-1.16h.011v-.039Z" transform="translate(-49.082 -168.144)" fill="#005e7a"/><path d="M63.351,169.495v-9.288l-7.306,4.1v1.076H55.009v1.039H53.969v-1.039H52.93V168.5H51.89v-1.039H50.851v2.079H52.93v1.039H50.851v-1.039H49.812v3.118h1.039v-1.04H52.93v1.025l.028.014,3.09-.923v-1.155h1.04v.839l6.264-1.879.011,0V169.5Zm-7.306.039H55.009v1.039H53.969v-1.039h1.039v-1.039h1.04Zm2.078-2.078H57.088v-1.04h1.039Z" transform="translate(-46.694 -160.207)" fill="#005e7a"/><g transform="translate(39.257 2.571)"><path d="M119.921,167.028a4.318,4.318,0,0,1,1.312.881,4.126,4.126,0,0,1,.89,1.3,3.976,3.976,0,0,1,.328,1.612,4.152,4.152,0,0,1-.291,1.565,3.969,3.969,0,0,1-.834,1.284,3.76,3.76,0,0,1,.834,1.265,4.154,4.154,0,0,1,.291,1.565,3.979,3.979,0,0,1-.328,1.612,4.238,4.238,0,0,1-.89,1.312,4.372,4.372,0,0,1-1.312.9,3.872,3.872,0,0,1-1.611.34h-4.686V166.7h4.687A3.975,3.975,0,0,1,119.921,167.028Zm-3.729,5.369h2.118a1.569,1.569,0,0,0,1.574-1.574,1.457,1.457,0,0,0-.46-1.1,1.55,1.55,0,0,0-1.115-.441h-2.118Zm3.233,5.219a1.518,1.518,0,0,0,.46-1.115,1.457,1.457,0,0,0-.46-1.1,1.552,1.552,0,0,0-1.115-.441h-2.118v3.111h2.118A1.516,1.516,0,0,0,119.424,177.617Z" transform="translate(-113.624 -165.594)" fill="#00adef"/><path d="M135.053,169.765a1.529,1.529,0,0,0-.441,1.1v5.66a1.5,1.5,0,0,0,.441,1.087,1.476,1.476,0,0,0,1.04.468h3.655l.525,2.586h-4.067a4.046,4.046,0,0,1-1.621-.328,4.333,4.333,0,0,1-1.33-.89,4.159,4.159,0,0,1-.9-1.313,3.976,3.976,0,0,1-.328-1.611V170.9a4.111,4.111,0,0,1,.328-1.631,4.294,4.294,0,0,1,.89-1.34,4.153,4.153,0,0,1,1.312-.9,3.975,3.975,0,0,1,1.611-.328h4.1l-.525,2.586h-3.655A1.46,1.46,0,0,0,135.053,169.765Z" transform="translate(-121.605 -165.595)" fill="#00adef"/><path d="M151.97,179.491a4.3,4.3,0,0,1-1.34-.89,4.131,4.131,0,0,1-.9-1.322,4.04,4.04,0,0,1-.327-1.621v-2.568a4.046,4.046,0,0,1,.327-1.621,4.166,4.166,0,0,1,2.209-2.209,4.045,4.045,0,0,1,1.621-.328,4.222,4.222,0,0,1,.816.075,4.137,4.137,0,0,1,.759.227v-4.48h2.592v15.068H153.6A4.109,4.109,0,0,1,151.97,179.491Zm.17-3.214a1.63,1.63,0,0,0,.347.487,1.646,1.646,0,0,0,.506.328,1.555,1.555,0,0,0,.609.122h1.536v-4.123a1.587,1.587,0,0,0-.955-1.455,1.537,1.537,0,0,0-.619-.122,1.49,1.49,0,0,0-1.105.459,1.536,1.536,0,0,0-.45,1.115v2.568a1.459,1.459,0,0,0,.129.621Z" transform="translate(-129.14 -164.751)" fill="#005e7a"/><path d="M168.166,169.283a1.586,1.586,0,1,1,1.105.45A1.5,1.5,0,0,1,168.166,169.283Zm2.417,1.48V180.6h-2.662v-9.839Z" transform="translate(-137.069 -165.534)" fill="#005e7a"/><path d="M179.312,186.66h-2.605V176.24a4.041,4.041,0,0,1,.328-1.621,4.319,4.319,0,0,1,.89-1.331,4.133,4.133,0,0,1,5.885,0,4.319,4.319,0,0,1,.89,1.331,4.041,4.041,0,0,1,.329,1.621v2.605a4.146,4.146,0,0,1-.319,1.621,4.05,4.05,0,0,1-2.2,2.2,4.147,4.147,0,0,1-1.621.318h-1.574Zm.45-11.572a1.473,1.473,0,0,0-.45,1.1v4.2h1.574a1.521,1.521,0,0,0,1.105-.44,1.473,1.473,0,0,0,.45-1.1V176.24a1.547,1.547,0,0,0-.459-1.124,1.5,1.5,0,0,0-1.115-.468,1.518,1.518,0,0,0-1.106.44Z" transform="translate(-140.981 -167.919)" fill="#005e7a"/><path d="M197.133,179.816h-2.586V164.748h2.586Z" transform="translate(-148.717 -164.748)" fill="#005e7a"/><path d="M208.21,172.4a4.334,4.334,0,0,1,1.321.9,4.194,4.194,0,0,1,.89,1.321,4,4,0,0,1,.328,1.6v2.605a4.041,4.041,0,0,1-.328,1.621,4.159,4.159,0,0,1-7.66,0,4.04,4.04,0,0,1-.327-1.621v-2.605a3.994,3.994,0,0,1,.327-1.6,4.213,4.213,0,0,1,.89-1.321,4.343,4.343,0,0,1,1.321-.9,4.057,4.057,0,0,1,3.243,0Zm-.525,2.775a1.476,1.476,0,0,0-2.193,0,1.561,1.561,0,0,0-.44,1.105v2.53a1.586,1.586,0,0,0,.44,1.125,1.518,1.518,0,0,0,2.193,0,1.586,1.586,0,0,0,.441-1.125v-2.53a1.561,1.561,0,0,0-.441-1.107Z" transform="translate(-152.137 -167.919)" fill="#005e7a"/><path d="M231.245,172.445a4,4,0,0,1,1.321.89,4.325,4.325,0,0,1,.89,1.33,4.046,4.046,0,0,1,.328,1.621v6.728H231.2v-6.709a1.562,1.562,0,0,0-.441-1.105,1.5,1.5,0,0,0-1.1-.488,1.551,1.551,0,0,0-1.124.459,1.5,1.5,0,0,0-.469,1.115v6.728h-2.586v-6.709a1.558,1.558,0,0,0-.441-1.105,1.5,1.5,0,0,0-1.1-.488,1.568,1.568,0,0,0-1.574,1.574v6.728h-2.605v-6.69a4.208,4.208,0,0,1,.319-1.631,4.115,4.115,0,0,1,2.2-2.239,4.046,4.046,0,0,1,1.621-.328,3.791,3.791,0,0,1,1.574.29,4.217,4.217,0,0,1,1.293.853,4.083,4.083,0,0,1,1.284-.843,4.025,4.025,0,0,1,1.565-.3,4.153,4.153,0,0,1,1.621.318Z" transform="translate(-159.654 -167.947)" fill="#005e7a"/><path d="M252.943,172.456a4.191,4.191,0,0,1,2.2,2.209,4.046,4.046,0,0,1,.328,1.621v6.728h-4.1a4.114,4.114,0,0,1-1.631-.328,4.3,4.3,0,0,1-1.34-.89,4.129,4.129,0,0,1-.9-1.322,4.041,4.041,0,0,1-.328-1.621v-2.568a4.046,4.046,0,0,1,.328-1.621,4.168,4.168,0,0,1,2.209-2.209,4.046,4.046,0,0,1,1.621-.328A3.977,3.977,0,0,1,252.943,172.456Zm-.524,2.718a1.561,1.561,0,0,0-2.212,0,1.536,1.536,0,0,0-.45,1.115v2.568a1.461,1.461,0,0,0,.478,1.105,1.6,1.6,0,0,0,1.133.45h1.5v-4.123a1.536,1.536,0,0,0-.448-1.116Z" transform="translate(-171.539 -167.948)" fill="#005e7a"/></g><path d="M-2.632-7.378h.267a.619.619,0,0,0,.433-.134A.5.5,0,0,0-1.784-7.9a.467.467,0,0,0-.142-.389.728.728,0,0,0-.447-.11h-.259Zm1.586-.538a.892.892,0,0,1-.595.9l.917,1.537H-1.54l-.746-1.339h-.346v1.339h-.73v-3.5H-2.35a1.521,1.521,0,0,1,.987.263.977.977,0,0,1,.314.793Zm-4.095.688A2.879,2.879,0,0,1-4.754-8.68,2.84,2.84,0,0,1-3.689-9.748a2.871,2.871,0,0,1,1.459-.39,2.879,2.879,0,0,1,1.452.387A2.84,2.84,0,0,1,.291-8.686,2.871,2.871,0,0,1,.682-7.228,2.883,2.883,0,0,1,.307-5.8,2.855,2.855,0,0,1-.747-4.722a2.849,2.849,0,0,1-1.483.4,2.853,2.853,0,0,1-1.479-.4A2.856,2.856,0,0,1-4.763-5.79,2.879,2.879,0,0,1-5.141-7.228Zm.476,0A2.39,2.39,0,0,0-4.337-6a2.4,2.4,0,0,0,.893.889,2.4,2.4,0,0,0,1.215.323,2.379,2.379,0,0,0,1.223-.331,2.42,2.42,0,0,0,.889-.889A2.384,2.384,0,0,0,.206-7.228,2.4,2.4,0,0,0-.122-8.446a2.384,2.384,0,0,0-.894-.891,2.4,2.4,0,0,0-1.214-.327,2.388,2.388,0,0,0-1.21.321,2.42,2.42,0,0,0-.893.889A2.375,2.375,0,0,0-4.665-7.228Z" transform="translate(128.332 12.71)" fill="#005e7a"/></svg>