<svg id="regis-bordet" xmlns="http://www.w3.org/2000/svg" xmlns:xlink="http://www.w3.org/1999/xlink" width="136.612" height="140.989" viewBox="0 0 136.612 140.989">
  <defs>
    <clipPath id="clip-path">
      <rect id="Rectangle_6734" data-name="Rectangle 6734" width="136.612" height="140.989"/>
    </clipPath>
  </defs>
  <g id="Groupe_19484" data-name="Groupe 19484" clip-path="url(#clip-path)">
    <path id="Tracé_22108" data-name="Tracé 22108" d="M19.641,108.144a9.213,9.213,0,0,1,1.162-.959,39.161,39.161,0,0,0,7.1-5.2,3.029,3.029,0,0,1,.493-.407,20.992,20.992,0,0,0,3.743-3.061,11.618,11.618,0,0,1,1.291-.8c1.374-1.006,2.729-2.038,4.09-3.062.068-.051.112-.14.185-.176,1.581-.787,2.6-2.262,3.973-3.265a4.818,4.818,0,0,0,1.9-4.326c.011-1.356-.028-2.712-.017-4.068.017-2.137.04-4.274.1-6.411.038-1.45.135-2.9.2-4.347a5.2,5.2,0,0,0,.007-.769c-.078-.748-.472-.995-1.136-.6a11.207,11.207,0,0,0-2.542,1.674,14.981,14.981,0,0,1-2.5,1.495c-1.545,1.047-3.169,1.974-4.621,3.167-.983.808-2.132,1.408-3.139,2.19-1.817,1.409-3.571,2.9-5.374,4.325A15.427,15.427,0,0,0,22.3,85.19c-.818.946-2.062,1.239-2.863,2.266a5.706,5.706,0,0,1-2.5,1.891c-.723.264-1.237,1.105-1.835,1.7-.151.149-.234.4-.407.487-1.6.768-2.378,2.409-3.689,3.489A8.832,8.832,0,0,0,9.81,96.5c-.1.134-.156.336-.287.418C7.794,98,7,99.9,5.761,101.39a16.1,16.1,0,0,0-3.769,7.018,4.713,4.713,0,0,0,.2,3.212,2.048,2.048,0,0,0,1.783,1.225,7.975,7.975,0,0,0,5.034-.77c.621-.37,1.1-.192,1.525.421.226.323.158.607-.168.736-.78.307-1.414.933-2.358.907a8.958,8.958,0,0,0-1.746.379,6.433,6.433,0,0,1-4.55-.845,3.78,3.78,0,0,1-1.676-3.15,6.128,6.128,0,0,1,.729-3.705c.642-1.15,1.085-2.411,1.716-3.568a15.35,15.35,0,0,1,4.143-5.294,2.9,2.9,0,0,0,.4-.488c1.128-1.329,2.252-2.663,3.391-3.983.5-.579,1.041-1.123,1.548-1.7a4.569,4.569,0,0,1,1.865-1.514,3.123,3.123,0,0,0,.877-.7c1.272-1.117,2.51-2.274,3.817-3.348,1.118-.918,2.314-1.74,3.472-2.609.574-.431,1.153-.859,1.708-1.315.758-.622,1.5-1.265,2.237-1.909.475-.413.907-.88,1.408-1.257.773-.582,1.593-1.1,2.385-1.66a5.637,5.637,0,0,0,.872-.7c.413-.437.77-.912,1.463-.924a.966.966,0,0,0,.531-.305,14.18,14.18,0,0,1,3.909-2.582,3.1,3.1,0,0,0,.507-.385,11.491,11.491,0,0,1,2.8-1.757,11.4,11.4,0,0,0,2.047-1.267,1.888,1.888,0,0,1,.551-.314c1.309-.279,1.654-1.283,1.7-2.393.08-2.085.058-4.173.081-6.26a2.107,2.107,0,0,1,.036-.638c.643-1.916.276-3.9.427-5.854.166-2.123.311-4.248.463-6.373.091-1.276.2-2.552.261-3.83.128-2.9.234-5.8.334-8.7.074-2.123.089-4.248.193-6.369.121-2.468.4-4.933.44-7.4.03-1.823-.212-3.651-.337-5.476-.012-.169-.074-.336-.083-.505-.083-1.659-.11-3.322-.253-4.975-.12-1.4-.361-2.785-.572-4.173a6.866,6.866,0,0,1-.289-1.242,14.316,14.316,0,0,0-.4-3.727c-.174-.8.608-1.563,1.142-1.251a2.542,2.542,0,0,1,1.085,1.181,14.984,14.984,0,0,1,.554,2.615,55.3,55.3,0,0,1,.552,7.782c.078,2.977.472,5.944.636,8.921a27.384,27.384,0,0,1-.21,3.435c-.012.169-.087.335-.089.5-.034,2.041-.011,4.085-.1,6.123a11.606,11.606,0,0,1-.42,3.995,5.524,5.524,0,0,0-.091,1.655c-.061,1.063-.171,2.125-.19,3.19-.012.675.167,1.355.15,2.03-.031,1.235-.151,2.468-.219,3.7-.08,1.449-.137,2.9-.22,4.347a3.164,3.164,0,0,1-.164.875,3.418,3.418,0,0,0-.2,2,4.416,4.416,0,0,1,.037,1.151c-.081,2.555-.161,5.11-.261,7.665-.057,1.449-.176,2.9-.219,4.346a3.357,3.357,0,0,0,.235,1.239.614.614,0,0,0,1.029.316A9.21,9.21,0,0,1,51.7,65.574a1.424,1.424,0,0,0,1.174-1.209q.616-2.356,1.2-4.72.543-2.17,1.065-4.347c.367-1.531.711-3.069,1.084-4.6.263-1.075.547-2.146.841-3.213.635-2.3,1.291-4.586,1.921-6.883.394-1.438.747-2.887,1.142-4.324a6.053,6.053,0,0,1,.416-.934,2.81,2.81,0,0,0,.38-.8c.17-1.736,1.163-3.209,1.523-4.871a35.35,35.35,0,0,1,1.495-4.406c.5-1.4.943-2.818,1.426-4.218a19.089,19.089,0,0,1,2.186-3.858.945.945,0,0,1,1.693.043,3.707,3.707,0,0,1,.564,1.784,15.866,15.866,0,0,1,0,4.58.815.815,0,0,0-.011.383,6.455,6.455,0,0,1-.323,3.737,3.481,3.481,0,0,0-.013,1.006,9.208,9.208,0,0,1-.058,2.55,17.268,17.268,0,0,0-.358,4.319c-.082,1.619-.278,3.231-.4,4.847-.063.84,0,1.694-.118,2.524a57.49,57.49,0,0,0-.32,6c-.065,1.743-.273,3.48-.357,5.222-.082,1.7-.051,3.408-.133,5.109-.08,1.662-.24,3.319-.364,4.978-.042.553-.075,1.106-.125,1.658a1.719,1.719,0,0,0,.7,1.559c.921.775,1.117.76,2.015-.091.618-.586,1.3-1.1,1.943-1.661a6.724,6.724,0,0,0,.823-.785,16.126,16.126,0,0,1,3.326-3.3,35.249,35.249,0,0,0,2.615-2.416c2.577-2.172,4.974-4.534,7.4-6.871,1.66-1.6,3.314-3.21,4.981-4.8,1.72-1.644,3.475-3.251,5.171-4.919,1.062-1.045,1.983-2.238,3.073-3.251,1.743-1.62,3.215-3.535,5.259-4.837.374-.238.582-.727.888-1.081.777-.9,1.566-1.784,2.352-2.674.084-.1.22-.165.264-.275a5.943,5.943,0,0,1,2.424-2.576,35.953,35.953,0,0,0,4.166-3.949c1.763-1.671,3.42-3.453,5.169-5.139,1.995-1.922,3.956-3.893,6.091-5.65a18.114,18.114,0,0,1,5.044-3.227c1.058-.4,1.977-1.154,3.007-1.647a7.027,7.027,0,0,1,1.829-.463.647.647,0,0,1,.841.577,1.316,1.316,0,0,1-.413.962,6.894,6.894,0,0,1-1.5.7c-.195.081-.5.028-.609.158-1.019,1.192-2.686,1.2-3.848,2.165-.98.812-2.157,1.383-3.155,2.175-1.67,1.325-3.3,2.7-4.88,4.135-1.035.942-1.857,2.125-2.921,3.026-1.436,1.215-2.7,2.59-4.008,3.923-1.7,1.734-3.322,3.541-4.977,5.317-.087.094-.145.235-.249.289-1.607.828-2.436,2.469-3.759,3.6-1.153.989-2.079,2.237-3.144,3.332-.857.881-1.777,1.7-2.66,2.557-.854.828-1.692,1.673-2.546,2.5-.947.918-1.9,1.827-2.855,2.741q-1.835,1.764-3.667,3.531c-.67.645-1.335,1.3-2.013,1.933-.713.67-1.458,1.307-2.155,1.993-2.4,2.363-4.7,4.843-7.227,7.068-1.141,1.005-2.149,2.159-3.376,3.074-.538.4-.936.984-1.437,1.441-1.222,1.118-2.491,2.186-3.7,3.322-1.091,1.028-1.024,1.138-.173,2.33a30.872,30.872,0,0,1,2.807,4.563,13.674,13.674,0,0,1,1.4,3.8,7.63,7.63,0,0,0,.714,1.484,24.482,24.482,0,0,1,1.651,7.339c.328,4.039.618,8.084.8,12.132a23.537,23.537,0,0,1-.364,4.324,23.6,23.6,0,0,0,.041,5.979,35.441,35.441,0,0,1,.533,5.2,13.387,13.387,0,0,1-.72,5.165c-.482,1.077-.62,2.3-1.053,3.409a3.352,3.352,0,0,1-5.353,1.5,6.534,6.534,0,0,1-2.266-2.886c-.152-.395-.421-.743-.583-1.135-.358-.859-.709-1.723-1.013-2.6-.363-1.047-.709-2.1-1-3.171s-.532-2.143-.727-3.227c-.234-1.3-.44-2.607-.576-3.919-.179-1.74-.3-3.486-.408-5.231-.142-2.254-.278-4.509-.364-6.765q-.2-5.291-.324-10.584c-.018-.845.152-1.693.21-2.541a8.942,8.942,0,0,0,.044-1.9,14.756,14.756,0,0,1,0-4.341,7.682,7.682,0,0,0,.074-1.53c-.05-.856-.6-1.1-1.286-.6-.166.122-.258.342-.414.482-1.015.913-2.041,1.814-3.057,2.725-.661.592-1.3,1.212-1.971,1.791-1.869,1.611-3.721,3.245-5.642,4.791a2.982,2.982,0,0,0-1.183,2.033,51.3,51.3,0,0,0-.826,7.765c.021.846-.194,1.694-.254,2.545-.183,2.636-.347,5.274-.513,7.911-.08,1.276-.093,2.559-.236,3.828-.1.872-.387,1.72-.553,2.587a16.321,16.321,0,0,0-.2,1.637c-.094,1.06-.159,2.122-.261,3.18-.034.354-.181.736-.633.6-.419-.13-.4-.526-.24-.858a3.422,3.422,0,0,0,.132-2.736,1.488,1.488,0,0,1-.046-.509c.053-2.041.113-4.082.167-6.123s.094-4.079.162-6.118c.018-.55.117-1.1.178-1.645.088-.805.2-1.609.26-2.417.189-2.378.362-4.758.536-7.138a2.466,2.466,0,0,0-.013-.637c-.071-.378-.338-.534-.652-.309-1.529,1.092-2.841,2.285-2.738,4.441.1,2.03.045,4.067.031,6.1-.026,3.662.294,7.309.468,10.963.117,2.466.125,4.943.39,7.393.164,1.513.072,3.029.3,4.552a20.4,20.4,0,0,1,.5,3.752c-.067,1.4.577,2.691.25,4.136a4.446,4.446,0,0,0,.777,3.3c.14.215.377.32.427-.028a17.469,17.469,0,0,0,.134-1.874c.014-.375-.036-.753-.017-1.127,0-.087.167-.225.264-.232a.356.356,0,0,1,.288.2c.091.577.368,1.25.174,1.721-.553,1.34-.158,2.593-.005,3.9a33.6,33.6,0,0,1,.141,4.078,1.271,1.271,0,0,1-1.046,1.145,1.03,1.03,0,0,1-.993-.863c-.37-1.442-.669-2.9-.988-4.359-.109-.495-.209-.993-.293-1.494a8.664,8.664,0,0,1-.2-1.509,14.284,14.284,0,0,0-.431-3.674,19.154,19.154,0,0,1-.316-2.534c-.087-.761-.175-1.522-.252-2.284-.1-1.016-.2-2.033-.3-3.05-.144-1.482-.308-2.962-.424-4.446-.077-.978-.107-1.962-.12-2.943-.025-2,.061-4.01-.055-6.006-.145-2.507-.5-5-.663-7.506-.111-1.7-.047-3.419-.063-5.128-.006-.6.011-1.2-.034-1.795-.031-.417-.293-.633-.711-.436a5.381,5.381,0,0,0-1.1.643c-.763.616-1.478,1.29-2.232,1.917-.885.736-1.777,1.467-2.692,2.165A17.245,17.245,0,0,1,34.1,99.6c-1.767.867-2.981,2.469-4.74,3.336-1.064.524-1.991,1.334-3.069,1.818a25.688,25.688,0,0,0-5.282,3.082,6.545,6.545,0,0,1-1.217.6l-.152-.287m47.748-2.951-.292.039a55.957,55.957,0,0,0,.743,5.82c.541,2.36.7,4.816,1.662,7.077.265.622.472,1.268.734,1.891.181.431.431.834.612,1.265a7.1,7.1,0,0,0,2.161,2.946,1.661,1.661,0,0,0,.914.363,3.127,3.127,0,0,0,2.268-2.02c.052-1.8.716-3.487.9-5.284a34.972,34.972,0,0,0,.18-8.285,3.785,3.785,0,0,1,.008-.767c.062-.889.195-1.779.188-2.667-.01-1.236-.124-2.47-.192-3.705a54.6,54.6,0,0,0-.405-6.489c-.482-2.729-.049-5.58-1.141-8.216a1.68,1.68,0,0,1-.029-.381,30.907,30.907,0,0,0-1.627-7.195,18.1,18.1,0,0,0-1.6-3.836c-.727-1.039-1.245-2.221-1.925-3.3a4.179,4.179,0,0,0-1.1-1.06.952.952,0,0,0-.8-.154,2.724,2.724,0,0,0-1.689,2.108c-.106.973-.173,1.954-.19,2.933-.033,1.923-.018,3.847-.027,5.771-.008,1.657,0,3.315-.04,4.972-.038,1.492-.142,2.983-.2,4.475a9.7,9.7,0,0,0,.083,1.016,29.694,29.694,0,0,1,.188,4.448,26.51,26.51,0,0,0,.068,4.2c.105,1.35.36,2.689.55,4.034m.439-81.717-.1-.008c0-.683.008-1.366-.01-2.048,0-.083-.125-.181-.215-.235-.03-.018-.162.065-.192.128a6.587,6.587,0,0,0-.286.708c-.381,1.124-.741,2.255-1.134,3.374-.494,1.407-1.044,2.8-1.51,4.211-.344,1.049-.59,2.129-.883,3.194a21.728,21.728,0,0,1-1.1,3.8c-.967,1.981-1.3,4.143-2.048,6.179-.9,2.437-1.241,5.031-1.989,7.525a41.347,41.347,0,0,0-1.789,7.573,2.548,2.548,0,0,1-.206.871,17,17,0,0,0-1.149,4.837c-.2,1.143.051,1.322,1.229,1.251a18.366,18.366,0,0,1,5.069.2c.916.2,1.812.486,2.722.711.695.172.908.047.968-.589.182-1.948.363-3.9.5-5.849.12-1.658.152-3.322.279-4.98.217-2.844.538-5.682.7-8.528.166-2.894.194-5.8.284-8.694a8.319,8.319,0,0,1,.053-1.152,44.423,44.423,0,0,0,.478-7.511c0-.725.024-1.452.073-2.175.063-.934.163-1.866.247-2.8M65.2,69.906c.038-1.816-.153-2.009-1.644-2.695a15.889,15.889,0,0,0-5.088-1.057,17.041,17.041,0,0,0-3.168.194c-.592.05-.868.386-.978.986-.29,1.592-.677,3.166-.962,4.759-.292,1.624-.442,3.258-.9,4.872a26,26,0,0,0-.577,4.805,2.539,2.539,0,0,0,.294.9,3.013,3.013,0,0,0,.756-.359c.991-.87,1.944-1.785,2.934-2.657q3.978-3.5,7.98-6.975A3.057,3.057,0,0,0,65.2,69.906M51.439,67.179c-1.387.4-2.807.718-4.147,1.24a1.922,1.922,0,0,0-1.348,2.1c.049.421-.005.853.012,1.279a17.762,17.762,0,0,1-.092,4.436,12.839,12.839,0,0,0-.2,2.287c-.031,1.153-.017,2.307,0,3.46a31.153,31.153,0,0,0-.012,4.954c.127.722.266.842.883.429.745-.5,1.471-1.027,2.175-1.58a2.037,2.037,0,0,0,.842-1.379c.312-2.364.67-4.723,1-7.085a14.077,14.077,0,0,1,.36-2.521,8.091,8.091,0,0,0,.45-2.757,4.368,4.368,0,0,1,.2-.993c.225-.991.484-1.976.67-2.975.124-.665-.057-.81-.794-.891"/>
    <path id="Tracé_22109" data-name="Tracé 22109" d="M11.77,112.624c-.248-.093-.517-.127-.534-.214a.651.651,0,0,1,.129-.542,16.862,16.862,0,0,1,1.626-1.17c.354-.224.778-.335,1.143-.544.874-.5,1.726-1.037,2.6-1.538a.946.946,0,0,1,.6-.157,9.616,9.616,0,0,1,1.176.415,4.161,4.161,0,0,1-.881.829c-1.217.6-2.474,1.123-3.7,1.7-.342.161-.631.431-.963.618-.4.225-.819.416-1.192.6"/>
  </g>
</svg>
