<svg id="rep-fran" xmlns="http://www.w3.org/2000/svg" width="162.947" height="142.14" viewBox="0 0 162.947 142.14">
  <g id="Groupe_19475" data-name="Groupe 19475">
    <path id="Tracé_22092" data-name="Tracé 22092" d="M1028.7,1022.161c.276-.276.552-.551.8-.852a15.946,15.946,0,0,1,1.579-1.6,3.679,3.679,0,0,1,.527-.4c.05-.05.05-.15.1-.2-.225.1-.376.276-.627.376-.05,0-.1-.05-.05-.1.176-.125.351-.251.5-.376h-.025c-.05,0-.05-.05-.05-.1a1.876,1.876,0,0,0-1.5.7c-.1.05-.2-.05-.226-.05-.7.225-1.228.852-1.93,1.128v-.1a4.965,4.965,0,0,1-.853.326,4.73,4.73,0,0,1-1.178.05,13.887,13.887,0,0,0-1.73.3c-.025,0-.025,0-.05.025a3.776,3.776,0,0,0-.877.351l-.1.1a1.131,1.131,0,0,1-.326.276,3.713,3.713,0,0,0-.777.627.092.092,0,0,1-.075.025c-.251.251-.5.5-.752.727-.025.025-.1.025-.15.025,0-.025.025-.025.025-.05.05-.075.075-.125.125-.2l.15-.226a2.648,2.648,0,0,1,.2-.276c.025-.025.025-.05,0-.05a.092.092,0,0,0-.075-.025,4.791,4.791,0,0,1,.8-.6c-.025,0-.075-.025-.05-.05.025-.05.05-.075.075-.126,0-.025,0-.025.025-.05,0-.025-.025-.025-.025-.05l-.226.15c-.125.1-.2.3-.376.3h-.075c-.025,0-.05,0-.05-.025v-.025c0-.025.025-.025.025-.05s.025-.025.025-.05a.025.025,0,0,1,.025-.025.087.087,0,0,1,.025-.05c0-.025.025-.025.025-.05a.19.19,0,0,0,.05-.1c0-.025.025-.025.025-.05.025-.025.025-.05.05-.075.025-.05,0-.075-.025-.075a.875.875,0,0,1,.326-.276h-.025c.176-.1.376-.2.552-.3l.075-.075a4.215,4.215,0,0,0-.752.376.354.354,0,0,0-.075.05s-.05.025-.125-.05v-.025c.05-.1.2-.151.276-.226.05,0,.1,0,.1.05,1.529-1.178,3.61-.9,5.365-1.5a4.11,4.11,0,0,1,.426-.276c.226-.1.426-.326.7-.476a2.161,2.161,0,0,0,.8-1.078.174.174,0,0,0-.05-.1,7.659,7.659,0,0,1-2.081,1.554,9.008,9.008,0,0,1-3.134.576.218.218,0,0,1,.226-.1c0-.15.1-.2.2-.276h.15c.05,0,.05-.1.1-.1.1,0,.251-.05.2-.05-.15-.2-.426.15-.652,0,.1-.1.05-.226.151-.276h.2a.35.35,0,0,1,.1-.2c.7-.426,1.379-.752,2.031-1.128-.15,0-.225.15-.376.05.1,0,0-.15.1-.15.527-.15.953-.426,1.479-.627-.2,0-.326.15-.526,0,.1-.05.15-.15.276-.15v-.15c0-.05.05-.05.1-.05a.175.175,0,0,1-.1-.05c.05-.1.2-.05.276-.15-.05,0-.15,0-.15-.05a.91.91,0,0,1,.627-.276c-.05-.1-.2,0-.2-.1,0-.05.05-.05.1-.05h-.1c-.1-.05-.05-.15-.05-.2a3.618,3.618,0,0,0,.426-1.128c-.05,0-.1,0-.1-.05a3.946,3.946,0,0,1-1.931.9h-.326a.907.907,0,0,1-.8-.05,3.12,3.12,0,0,1-.476-.376,6.407,6.407,0,0,0-1.178-.577,10.559,10.559,0,0,0-3.635-.526,9.587,9.587,0,0,1,1.654-.476,7.216,7.216,0,0,1,2.407-.476,1.52,1.52,0,0,0-.476,0,8.415,8.415,0,0,0-2.031.276c-.476.1-.9.276-1.379.376-.276.1-.426.376-.752.326v-.15a2.727,2.727,0,0,1,1.805-1.178,8.425,8.425,0,0,1,2.507.1,15.179,15.179,0,0,1,1.805.326c.226,0,.276.376.476.426.276.1.577,0,.853.2,0-.1-.05-.2,0-.276.2-.2.426.05.627-.05.376-.226-.326-.652-.527-1a.175.175,0,0,1,.05-.1,5.963,5.963,0,0,0,1.128.953c.226.1.8.226.7-.05a6.423,6.423,0,0,0-1.1-1.429v-.2c-.1,0-.1-.05-.15-.1v-.2c-.2-.1-.15-.276-.226-.426-.15-.225-.05-.576-.15-.852a4.671,4.671,0,0,1-.2-.8c-.15-.8-.326-1.5-.426-2.281-.1-.9.526-1.6.952-2.407a3.813,3.813,0,0,1,1.329-1.5,3.908,3.908,0,0,1,2.356-2.457,10.156,10.156,0,0,1,1.253-.476H1000v25.069h23.239a21.485,21.485,0,0,1,3.058-1.579,10.19,10.19,0,0,0,2.407-1.329m-7.27-3.409c-.1,0-.276.05-.226-.05.05-.226.376-.226.576-.326.1-.05.226-.15.326-.1.1.15.225.1.326.2-.3.276-.677.151-1,.276m-7.27-1.028a.174.174,0,0,1-.05-.1,15.5,15.5,0,0,0,1.529-2.407,5.821,5.821,0,0,0,1.6-1.328,9.124,9.124,0,0,1,2.657-2.081,1.732,1.732,0,0,1,1.228.05c-.15.2-.376.15-.577.276a.184.184,0,0,1-.151-.05.184.184,0,0,0,.05-.15c-.476.526-1.128.752-1.5,1.379-.276.476-.477,1.078-1.078,1.228-.2.05.05-.151-.05-.1a16.283,16.283,0,0,0-3.66,3.284m3.936-3.133c-.05.1-.1.1-.15.2a.391.391,0,0,1-.2.2c-.05,0-.1,0-.1-.05a.591.591,0,0,1,.376-.426c.075-.025.075.025.075.075m2.206,7.094a.664.664,0,0,1-.126.15c.05,0,.1.05.05.075a1.125,1.125,0,0,1-.351.251h-.075a1.171,1.171,0,0,0-.176.175c-.05.05-.326.025-.25-.05.125-.1.225-.226.351-.326a.766.766,0,0,0,.2-.2.2.2,0,0,1,.1-.1c.075-.05.326-.075.276.025m-.852-.376c-.2.125-.376.251-.552.376-.2.125-.426.2-.627.3a.092.092,0,0,0-.075-.025,2.245,2.245,0,0,0-.477.376l-.075.075-.075.075-.1.1c-.025.025-.025.05-.075.075-.025.025-.1.025-.1-.025-.025.025-.05.025-.076.05s-.05.025-.075.05h-.05c-.05.05-.125.1-.175.15a1.58,1.58,0,0,0-.276.3v.025l-.025.025a.025.025,0,0,1-.025.025c0,.025-.025.025-.025.05a.088.088,0,0,1-.05.025l-.025-.025a.024.024,0,0,0-.025-.025c-.025-.025-.025-.05-.05-.075v-.025a1.1,1.1,0,0,0,.15-.175c.025-.025.025-.05.05-.05.025-.025.05-.075.075-.1,0-.025.025-.025.025-.05.05-.075.1-.125.15-.2l.025-.025c.025-.025.05-.075.075-.1s.025-.05.05-.1v-.025c.025-.05.025-.075.05-.1v-.025c0-.025,0-.025.025-.05a.092.092,0,0,1,.025-.075v-.025a.98.98,0,0,1,.2-.251h-.025a1.09,1.09,0,0,0-.176.15c-.05.05-.15-.025-.075-.075.05-.025.075-.075.1-.1a2.382,2.382,0,0,1,.251-.251.519.519,0,0,1,.15-.1l.025-.025c.025-.05.075-.075.1-.125.451-.426,1.228-.426,1.8-.7.226-.1.527.05.752,0a.671.671,0,0,1,.426.1,3.614,3.614,0,0,0-1.2.6m.978-3.309c-.05-.05.15,0,.2-.1h-.376c-.05,0-.05-.05-.05-.1-.226.05-.526.151-.752.2-.326.1-.627.326-1,.426-.527.2-.953.627-1.5.8-.05,0-.05-.05-.05-.1.05-.151.225-.2.326-.326,0-.05,0-.1-.05-.1a8.074,8.074,0,0,1,1.379-1.229v-.15c.151-.2.376-.276.476-.526a.9.9,0,0,1,.476-.426c-.05-.05-.15-.05-.15-.151-.2,0-.376.1-.576-.05a1.852,1.852,0,0,1,.3-.176c-.05,0-.075-.025-.1-.075-.05-.1.1-.2.226-.226a1.138,1.138,0,0,0,.576-.2c-.326-.05-.7.1-1.053-.1a2.577,2.577,0,0,1,1.178-1.429c.05,0,.15,0,.15.05a.483.483,0,0,1-.376.476,6.178,6.178,0,0,1,1.128.276c-.05.1-.151.05-.2.05.226.15.526.05.752.226-.151.151-.276,0-.426,0a12.179,12.179,0,0,1,4.262,1.7,13.635,13.635,0,0,1-3.259,1,.975.975,0,0,1-.376-.05c0,.05,0,.15-.05.15a.746.746,0,0,0-.476.1.463.463,0,0,1-.6.05" transform="translate(-1000 -1000)" fill="#000091"/>
    <path id="Tracé_22093" data-name="Tracé 22093" d="M2572.884,1000H2545.96a.714.714,0,0,1,.251.125c.226.125.5.276.677.351a2.179,2.179,0,0,1,.9.752.8.8,0,0,1,.15.627c-.1.226-.15.627-.376.7a1.669,1.669,0,0,1-1,.1,2.319,2.319,0,0,1-.576-.1,3.948,3.948,0,0,1,1.855,1.278c.049.1.226.15.426.15.05,0,.05.1.05.151-.1.1-.2.15-.15.276h.15c.226-.1.2-.577.526-.426a.562.562,0,0,1,.2.7,4.89,4.89,0,0,1-.576.476.37.37,0,0,0,0,.326,1.117,1.117,0,0,1,.225.577c.15.326.2.7.326,1.053a6.293,6.293,0,0,1,.325,2.131c0,.376-.2.7-.05,1.078a4.269,4.269,0,0,0,.527,1,6.935,6.935,0,0,1,.526.752c.276.476.8.953.577,1.5-.15.326-.652.276-1,.476-.276.225-.05.627.1.853.226.426-.276.7-.626.827.1.15.275.1.326.2.05.226.276.376.15.627-.2.276-.752.426-.476.852a1.2,1.2,0,0,1-.051,1.053,1.151,1.151,0,0,1-.852.7,1.838,1.838,0,0,1-.9.05.738.738,0,0,0-.276-.1,19.805,19.805,0,0,0-2.406-.326,4.081,4.081,0,0,0-.652.175,5.494,5.494,0,0,0-.577.5c-.025.05-.075.075-.1.125-.024.025-.05.05-.05.075l-.05.05a4.317,4.317,0,0,0-.376.552.024.024,0,0,1-.025.025c0,.025-.025.05-.051.075a3.807,3.807,0,0,0-.351.877,2.8,2.8,0,0,0,.051,2.231c.05.05,1.553.526,2.607,1a7.644,7.644,0,0,1,1.128.577h26.447V1000Z" transform="translate(-2503.82 -1000)" fill="#e1000f"/>
    <path id="Tracé_22094" data-name="Tracé 22094" d="M2673.83,1348.733c.2.05.477.05.477.15-.1.376-.652.476-.953.852h-.15c-.15.1-.1.326-.225.326a.635.635,0,0,0-.427.05.776.776,0,0,0,.7.276.224.224,0,0,1,.15.2.154.154,0,0,0,.1-.05c.05,0,.1,0,.1.05v.2c-.15.2-.376.1-.576.15a2.059,2.059,0,0,0,1.1,0c.276-.1,0-.576.2-.8-.1,0,0-.15-.1-.15a2.726,2.726,0,0,1,.277-.276.314.314,0,0,0,.275-.15c0-.1-.2-.151-.151-.226.276-.2.526-.476.427-.752-.05-.15-.427-.15-.652-.251a1.488,1.488,0,0,0-.8.05,3.694,3.694,0,0,0-.7.2,3.106,3.106,0,0,0-.9.476,4.415,4.415,0,0,1,1.028-.276,2.136,2.136,0,0,1,.8-.05" transform="translate(-2630.085 -1339.557)" fill="gray"/>
  </g>
  <path id="Tracé_22095" data-name="Tracé 22095" d="M1000,2315.041v-18.8h5.716a7.238,7.238,0,0,1,4.863,1.5,5.17,5.17,0,0,1,1.8,4.112,5.323,5.323,0,0,1-.777,2.908,5.247,5.247,0,0,1-2.206,1.955l5.866,8.323h-4.538l-4.989-7.6h-1.93v7.6Zm3.81-10.83h2.131a2.572,2.572,0,0,0,1.855-.627,2.307,2.307,0,0,0,.677-1.78,2.209,2.209,0,0,0-.677-1.7,2.542,2.542,0,0,0-1.855-.6h-2.131Zm14.114,10.83v-18.8h10.905v3.258h-7.12v4.337h6.041v3.26h-6.041v4.687h7.12v3.259Zm3.685-20.406,3.008-3.635h3.911l-3.459,3.635Zm11.857,20.406v-18.8h6.192a7.2,7.2,0,0,1,4.838,1.5,5.1,5.1,0,0,1,1.78,4.112,5.023,5.023,0,0,1-1.78,4.086,7.255,7.255,0,0,1-4.838,1.5h-2.382v7.6Zm3.811-10.83h2.532a2.634,2.634,0,0,0,1.9-.652,2.273,2.273,0,0,0,.677-1.755,2.169,2.169,0,0,0-.7-1.7,2.58,2.58,0,0,0-1.88-.6h-2.532Zm12.058,3.484V2296.24h3.811V2308a4.176,4.176,0,0,0,1,2.958,4.171,4.171,0,0,0,5.54,0,4.117,4.117,0,0,0,1-2.958V2296.24h3.811V2307.7a7.943,7.943,0,0,1-2.03,5.792,8.452,8.452,0,0,1-11.106,0A8,8,0,0,1,1049.335,2307.7Zm20.13,7.345v-18.8h5.315a7.05,7.05,0,0,1,4.588,1.354,4.561,4.561,0,0,1,1.68,3.76,4.3,4.3,0,0,1-1.98,3.71,5.557,5.557,0,0,1,2.281,1.805,4.5,4.5,0,0,1,.8,2.632,4.884,4.884,0,0,1-1.88,4.061,7.953,7.953,0,0,1-5.089,1.479Zm3.786-3.259h2.156a3.075,3.075,0,0,0,2.081-.652,2.339,2.339,0,0,0,.752-1.83,2.263,2.263,0,0,0-.752-1.805,3.157,3.157,0,0,0-2.081-.626h-2.156Zm0-8.172h1.6a2.392,2.392,0,0,0,1.68-.552,1.923,1.923,0,0,0,.6-1.529,1.862,1.862,0,0,0-.6-1.479,2.341,2.341,0,0,0-1.68-.552h-1.6Zm13.036,11.431v-18.8h3.786v15.341h7.119v3.46Zm14.515,0v-18.8h3.786v18.8Zm8.423-5.565a10.286,10.286,0,0,1-.727-3.835,10.1,10.1,0,0,1,.727-3.811,9.919,9.919,0,0,1,2.005-3.184,9.631,9.631,0,0,1,3.159-2.156,10.554,10.554,0,0,1,8.072,0,9.289,9.289,0,0,1,3.158,2.156,9.919,9.919,0,0,1,2.005,3.184,10.4,10.4,0,0,1-.25,8.222,9.607,9.607,0,0,1-2.708,3.435l1.128,1.077a5.77,5.77,0,0,0,3.911,1.78,3.981,3.981,0,0,0,1.354-.2v3.234a5,5,0,0,1-1.98.326,8.8,8.8,0,0,1-5.841-2.457l-2.231-2.006a10.049,10.049,0,0,1-2.582.325,10.175,10.175,0,0,1-4.036-.8,9.829,9.829,0,0,1-3.159-2.131A9.979,9.979,0,0,1,1109.225,2309.476Zm4.888-8.373a6.5,6.5,0,0,0-1.73,4.538,6.355,6.355,0,0,0,1.73,4.538,5.672,5.672,0,0,0,4.337,1.829,5.8,5.8,0,0,0,3.083-.827,5.736,5.736,0,0,0,2.156-2.307,6.746,6.746,0,0,0,.777-3.233,6.351,6.351,0,0,0-1.73-4.538,6.023,6.023,0,0,0-8.649,0Zm17.8,6.593V2296.24h3.811V2308a4.173,4.173,0,0,0,1,2.958,4.171,4.171,0,0,0,5.54,0,4.118,4.118,0,0,0,1-2.958V2296.24h3.81V2307.7a7.942,7.942,0,0,1-2.03,5.792,7.293,7.293,0,0,1-5.565,2.08,7.385,7.385,0,0,1-5.54-2.08A7.994,7.994,0,0,1,1131.912,2307.7Zm20.13,7.345v-18.8h10.9v3.258h-7.119v4.337h6.042v3.26h-6.042v4.687h7.119v3.259ZM1000,2342.241v-18.8h10.9v3.259h-7.094v4.336h6.042v3.259h-6.042v7.947Zm14.515,0v-18.8h5.716a7.4,7.4,0,0,1,4.888,1.5,5.1,5.1,0,0,1,1.78,4.111,5.455,5.455,0,0,1-.777,2.934,5.086,5.086,0,0,1-2.206,1.93l5.866,8.323h-4.538l-4.989-7.6h-1.93v7.6Zm3.81-10.83h2.131a2.662,2.662,0,0,0,1.88-.626,2.654,2.654,0,0,0,0-3.485,2.527,2.527,0,0,0-1.88-.6h-2.131Zm12.535,10.83,7.094-18.8h4.964l7.094,18.8h-4.036l-1.805-4.888h-7.5l-1.78,4.888Zm6.994-8.147h5.164l-2.582-7.045Zm15.317,8.147v-18.8h4.863l8.373,13.462v-13.462h3.785v18.8h-4.864l-8.373-13.513v13.513Zm20.958-9.4a10.1,10.1,0,0,1,.727-3.811,9.9,9.9,0,0,1,2.005-3.184,9.333,9.333,0,0,1,3.159-2.131,10.25,10.25,0,0,1,4.061-.8,10.051,10.051,0,0,1,4.512,1,9.171,9.171,0,0,1,3.359,2.808l-2.983,2.331a6.251,6.251,0,0,0-2.081-1.88,6.022,6.022,0,0,0-7.145,1.128,6.849,6.849,0,0,0,0,9.1,5.587,5.587,0,0,0,4.337,1.8,5.814,5.814,0,0,0,2.808-.676,6.14,6.14,0,0,0,2.081-1.905l2.983,2.306a9.012,9.012,0,0,1-2.757,2.507,9.393,9.393,0,0,1-3.66,1.228l-2.331,3.911h-3.359l2.356-3.96a9.772,9.772,0,0,1-4.237-1.831,9.466,9.466,0,0,1-2.858-3.484A9.9,9.9,0,0,1,1074.129,2332.84Zm18.927,9.4,7.095-18.8h4.964l7.094,18.8h-4.036l-1.78-4.888h-7.5l-1.805,4.888Zm7.02-8.147h5.139l-2.582-7.045Zm15.292,8.147v-18.8h3.811v18.8Zm7.621-2.607,2.757-2.532a6.48,6.48,0,0,0,1.906,1.7,4.517,4.517,0,0,0,2.231.6,2.494,2.494,0,0,0,1.755-.577,2.03,2.03,0,0,0,.652-1.6,1.879,1.879,0,0,0-.351-1.1,2.973,2.973,0,0,0-.978-.827,14.966,14.966,0,0,0-1.379-.7q-.777-.376-1.579-.727a10.145,10.145,0,0,1-1.554-.853,8.283,8.283,0,0,1-1.379-1.1,4.543,4.543,0,0,1-.978-1.529,5.354,5.354,0,0,1-.376-2.031,5.066,5.066,0,0,1,1.7-3.861,6.1,6.1,0,0,1,4.312-1.579,8.185,8.185,0,0,1,6.543,3.158l-2.782,2.507q-1.805-2.357-3.735-2.356a2.245,2.245,0,0,0-1.58.576,1.759,1.759,0,0,0-.6,1.4,1.728,1.728,0,0,0,.3.978,3.406,3.406,0,0,0,.777.777,11.684,11.684,0,0,0,1.153.652l1.329.628q.726.324,1.429.651a7.1,7.1,0,0,1,1.354.853,6,6,0,0,1,1.153,1.1,4.364,4.364,0,0,1,.777,1.428,5.625,5.625,0,0,1,.3,1.881,5.263,5.263,0,0,1-1.83,4.086,6.439,6.439,0,0,1-4.387,1.529,9.418,9.418,0,0,1-3.986-.777A8.64,8.64,0,0,1,1122.988,2339.634Zm17.4,2.607v-18.8h10.9v3.259H1144.2v4.336h6.041v3.259H1144.2v4.688h7.094v3.259Z" transform="translate(-1000 -2258.636)"/>
  <path id="Tracé_22096" data-name="Tracé 22096" d="M1062.271,4874.007c.551,0,1.028.427.777,1.4l-2.532.676c.4-1.2,1.153-2.08,1.755-2.08m1.4,4.111h-.5a3.074,3.074,0,0,1-2.005,1.354c-.7,0-1.053-.426-1.053-1.354a5.558,5.558,0,0,1,.125-1.128l4.111-1.353c.8-1.906-.175-2.733-1.3-2.733-1.956,0-4.161,3.409-4.161,6.092,0,1.279.6,1.981,1.554,1.981,1.128,0,2.281-1.078,3.234-2.859m-.651-6.117,2.331-2.13v-.3H1063.8l-1.379,2.457h.6Zm-8.749,2.056h1.354l-2.156,5.917a.682.682,0,0,0,.6,1,4.824,4.824,0,0,0,4.061-3.159h-.376a5.075,5.075,0,0,1-2.657,1.8l1.98-5.565h2.031l.25-.853h-1.98l.752-2.13h-.777l-1.4,2.13-1.679.226Zm-1.4-.3a.593.593,0,0,0-.476-.853,3.834,3.834,0,0,0-3.159,2.557h.376a2.908,2.908,0,0,1,1.655-1.253l-2.281,5.917a.585.585,0,0,0,.5.853,3.716,3.716,0,0,0,3.008-2.558h-.376a2.912,2.912,0,0,1-1.655,1.254Zm.225-2.357a.927.927,0,1,0,0-1.854.927.927,0,1,0,0,1.854m-11.005,3.16c.351,0,.552.551,0,1.778l-1.6,3.562c-.3.676.025,1.1.677,1.1a.675.675,0,0,0,.752-.526l1.579-4.162a5.311,5.311,0,0,1,2.682-1.854c.426,0,.376.351.1.9l-2.432,4.637a.684.684,0,0,0,.6,1,3.836,3.836,0,0,0,3.159-2.557h-.427a2.908,2.908,0,0,1-1.655,1.254l2.081-4.212a3.187,3.187,0,0,0,.4-1.429,1.022,1.022,0,0,0-1.1-1.128c-1.028,0-1.905,1.153-3.159,2.583v-1.1c0-.776-.251-1.479-.953-1.479-.827,0-1.579,1.3-2.181,2.557h.376c.427-.6.8-.927,1.1-.927m-1.629.151c.276-.979.125-1.806-.6-1.806-.927,0-1.229.626-2.131,2.582v-1.1c0-.777-.25-1.479-.953-1.479-.827,0-1.579,1.3-2.181,2.557h.376c.4-.576.777-.928,1.078-.928.351,0,.551.552,0,1.779l-1.6,3.56c-.3.679.025,1.1.677,1.1a.676.676,0,0,0,.752-.526l1.529-4.162c.452-.552.852-1.027,1.354-1.554h1.7Zm-8.749-.7c.552,0,1.028.427.777,1.4l-2.532.676c.426-1.2,1.153-2.08,1.755-2.08m1.4,4.111h-.5a3.075,3.075,0,0,1-2.005,1.354c-.7,0-1.053-.426-1.053-1.354a5.576,5.576,0,0,1,.125-1.128l4.111-1.353c.8-1.906-.15-2.733-1.3-2.733-1.956,0-4.162,3.409-4.162,6.092,0,1.279.6,1.981,1.554,1.981,1.128,0,2.281-1.078,3.234-2.859m-9.4-4.061h1.354l-2.156,5.917a.682.682,0,0,0,.6,1,4.794,4.794,0,0,0,4.061-3.159h-.376a5.076,5.076,0,0,1-2.657,1.8l1.98-5.565h2.031l.251-.853h-1.981l.752-2.13h-.777l-1.4,2.13-1.679.226Zm-7.195,4.613c0-1.83,2.03-4.311,3.184-4.311a2.078,2.078,0,0,1,.7.1l-1.178,3.159c-.677.827-1.73,1.829-2.231,1.829-.3,0-.476-.225-.476-.776m6.242-6.117-.627-.051-.7.7h-.125c-2.983,0-6.192,3.711-6.192,6.643a1.023,1.023,0,0,0,1.1,1.129c.877,0,1.73-1.254,2.708-2.582l-.05.477c-.125,1.352.3,2.1,1,2.1.828,0,1.58-1.3,2.156-2.558h-.376c-.4.577-.777.928-1.078.928s-.526-.577,0-1.78Zm-6.393,2.156c.276-.979.125-1.806-.6-1.806-.928,0-1.228.626-2.131,2.582v-1.1c0-.777-.251-1.479-.978-1.479-.827,0-1.579,1.3-2.156,2.557h.376c.4-.576.777-.928,1.078-.928.351,0,.552.552,0,1.779l-1.629,3.586c-.3.676.025,1.1.677,1.1a.675.675,0,0,0,.752-.526l1.579-4.186c.451-.552.852-1.027,1.354-1.554h1.68Zm-10.5,5.99.151-.451c-1.98-.377-2.231-.377-1.429-2.531l.752-2.031h1.579c.978,0,1,.426.852,1.5h.576l1.3-3.586h-.577c-.5.852-.878,1.5-1.955,1.5h-1.579l1.078-2.933c.376-1.051.552-1.253,1.905-1.253h.351c1.379,0,1.554.377,1.554,1.83h.551l.451-2.431h-7.646l-.151.451c1.579.326,1.73.477,1,2.532l-1.629,4.437c-.752,2.031-1.053,2.207-2.883,2.532l-.125.452h5.866Zm37.929-23.965c.552,0,1.028.426.777,1.4l-2.532.677c.4-1.2,1.153-2.081,1.755-2.081m1.4,4.111h-.5a3.079,3.079,0,0,1-2.005,1.354c-.7,0-1.053-.426-1.053-1.354a5.547,5.547,0,0,1,.126-1.128l4.111-1.354c.8-1.9-.176-2.731-1.3-2.731-1.955,0-4.161,3.409-4.161,6.091,0,1.279.6,1.98,1.554,1.98,1.128.024,2.281-1.078,3.234-2.857m-.652-6.115,2.332-2.132v-.3h-1.554l-1.379,2.457h.6Zm-8.749,2.054h1.354L1035,4862.7a.682.682,0,0,0,.6,1,4.826,4.826,0,0,0,4.061-3.158h-.376a5.062,5.062,0,0,1-2.657,1.8l1.98-5.565h2.031l.251-.853h-1.981l.752-2.131h-.777l-1.4,2.131-1.68.251Zm-1.4-.275a.594.594,0,0,0-.5-.854,3.836,3.836,0,0,0-3.159,2.558h.376a2.906,2.906,0,0,1,1.654-1.253l-2.281,5.916a.584.584,0,0,0,.5.852,3.713,3.713,0,0,0,3.008-2.555h-.376a2.912,2.912,0,0,1-1.655,1.254Zm.226-2.358a.927.927,0,1,0,0-1.854.957.957,0,0,0-.8.451.924.924,0,0,0,0,.952.9.9,0,0,0,.8.451m-7.27,8.275,3.76-9.978-.125-.175-2.607.3v.3l.5.375c.451.352.3.678-.1,1.806l-2.858,7.621a.676.676,0,0,0,.6,1,3.654,3.654,0,0,0,3.008-2.558h-.376a3.512,3.512,0,0,1-1.8,1.305m-7.671-1.03c0-1.83,2.031-4.311,3.184-4.311a2.136,2.136,0,0,1,.7.1l-1.2,3.157c-.677.829-1.73,1.832-2.231,1.832-.276.024-.451-.226-.451-.779m6.242-6.091-.627-.05-.7.7h-.125c-2.983,0-6.192,3.71-6.192,6.643a1.021,1.021,0,0,0,1.1,1.127c.877,0,1.73-1.252,2.708-2.581l-.05.477c-.125,1.353.3,2.1,1,2.1.827,0,1.579-1.3,2.156-2.555h-.376c-.4.575-.777.928-1.078.928s-.526-.578,0-1.757Zm-14.515,9.853c0-.779.752-1.28,1.83-1.705a12.459,12.459,0,0,0,1.6.6c1.128.376,1.554.527,1.554.853,0,.728-1.028,1.28-2.908,1.28-1.4.024-2.081-.277-2.081-1.029m3.083-4.788c-.5,0-.677-.427-.677-.9,0-1.479.7-3.26,1.83-3.26.5,0,.677.426.677.9,0,1.455-.727,3.261-1.83,3.261m3.209,4.06c0-.953-.852-1.3-2.231-1.7-1.178-.352-1.73-.451-1.73-.854a1.245,1.245,0,0,1,.752-.952,3.445,3.445,0,0,0,3.184-3.408,2.353,2.353,0,0,0-.125-.752h1.329l.251-.852h-2.256a1.954,1.954,0,0,0-1.1-.3,3.452,3.452,0,0,0-3.384,3.41,1.736,1.736,0,0,0,1.554,1.855c-.953.453-1.5.926-1.5,1.528a.95.95,0,0,0,.426.829c-2.206.651-3.109,1.48-3.109,2.432,0,1.029,1.354,1.454,2.958,1.454,2.708.025,4.989-1.454,4.989-2.683m-10.228-6.016c.978,0,1,.425.852,1.5h.576l1.3-3.584h-.577c-.5.853-.878,1.5-1.955,1.5h-2.181l1.078-2.933c.376-1.053.577-1.252,1.905-1.252h.953c1.379,0,1.554.375,1.554,1.829h.552l.451-2.431h-8.2l-.151.451c1.579.326,1.73.477,1,2.531l-1.629,4.437c-.752,2.031-1.053,2.208-2.883,2.533l-.125.451h9.125l1.629-2.582h-.627a5.4,5.4,0,0,1-4.161,1.98c-2.432,0-2.206-.125-1.4-2.383l.752-2.029h2.156Zm1.178-6.117,2.332-1.7v-.3h-1.554l-1.379,2.005Zm34.846-12.81c.552,0,1.027.426.777,1.4l-2.532.677c.4-1.229,1.153-2.08,1.755-2.08m1.4,4.11h-.5a3.077,3.077,0,0,1-2.005,1.354c-.7,0-1.053-.425-1.053-1.354a5.583,5.583,0,0,1,.125-1.128l4.111-1.353c.8-1.9-.176-2.732-1.3-2.732-1.955,0-4.161,3.409-4.161,6.091,0,1.278.6,1.981,1.554,1.981,1.128,0,2.281-1.078,3.234-2.859m-.652-6.115,2.331-2.131v-.3h-1.554l-1.379,2.457h.6Zm-8.749,2.03h1.379l-2.156,5.917a.682.682,0,0,0,.6,1,4.794,4.794,0,0,0,4.061-3.159h-.376a5.079,5.079,0,0,1-2.657,1.8l1.98-5.565h2.031l.25-.853h-1.98l.752-2.129h-.777l-1.4,2.129-1.68.227v.626Zm-.7.677c.276-.977.125-1.8-.6-1.8-.928,0-1.228.627-2.131,2.581v-1.1c0-.776-.251-1.479-.953-1.479-.827,0-1.58,1.3-2.181,2.556h.376c.4-.576.777-.926,1.078-.926.351,0,.552.552,0,1.779l-1.6,3.561c-.3.676.025,1.1.677,1.1a.677.677,0,0,0,.752-.526l1.579-4.161c.452-.552.852-1.028,1.354-1.555h1.654Zm-8.749-.7c.552,0,1.028.426.777,1.4l-2.532.677c.4-1.229,1.153-2.08,1.755-2.08m1.4,4.11h-.5a3.075,3.075,0,0,1-2.005,1.354c-.7,0-1.053-.425-1.053-1.354a5.583,5.583,0,0,1,.125-1.128l4.112-1.353c.8-1.9-.151-2.732-1.3-2.732-1.955,0-4.161,3.409-4.161,6.091,0,1.278.6,1.981,1.554,1.981,1.128,0,2.281-1.078,3.234-2.859m-9.576,1.656c-.4,0-.978-.375-.978-.7a7.919,7.919,0,0,1,.4-1.153l.652-1.753c.7-.854,1.8-1.782,2.432-1.782.376,0,.652.251.652.777-.025,1.655-1.529,4.613-3.159,4.613m4.563-5.239c0-1.2-.3-1.656-1.153-1.656-1.053,0-2.031,1.129-3.033,2.483l2.106-5.666-.125-.176-2.607.3v.3l.5.377c.451.349.3.7-.1,1.8l-2.281,5.991a7.319,7.319,0,0,0-.427,1.253c0,.7.953,1.379,1.83,1.379,1.98.05,5.29-3.584,5.29-6.392m-7.7-.777c.15-.552-.2-.853-.5-.853a3.836,3.836,0,0,0-3.159,2.556h.376a2.905,2.905,0,0,1,1.655-1.252l-2.281,5.917a.584.584,0,0,0,.5.852,3.717,3.717,0,0,0,3.008-2.557h-.376a2.9,2.9,0,0,1-1.655,1.253Zm.251-2.356a.927.927,0,1,0,0-1.854.956.956,0,0,0-.8.449.929.929,0,0,0,0,.954.9.9,0,0,0,.8.451m-5.791-1.129h-5.415l-.151.452c1.579.327,1.73.476,1,2.532l-1.629,4.437c-.752,2.031-1.053,2.206-2.883,2.532l-.125.451h8.223l1.78-3.184h-.627c-1.028,1.129-2.206,2.558-4.036,2.558-1.379,0-1.579-.25-.8-2.381l1.63-4.437c.752-2.031,1.053-2.208,2.883-2.532Z" transform="translate(-1000 -4738.861)"/>
</svg>
