<svg id="universite-lille" xmlns="http://www.w3.org/2000/svg" xmlns:xlink="http://www.w3.org/1999/xlink" width="170.705" height="142.654" viewBox="0 0 170.705 142.654">
  <defs>
    <clipPath id="clip-path">
      <rect id="Rectangle_6733" data-name="Rectangle 6733" width="170.705" height="142.654" fill="none"/>
    </clipPath>
  </defs>
  <g id="Groupe_19483" data-name="Groupe 19483" clip-path="url(#clip-path)">
    <path id="Tracé_22106" data-name="Tracé 22106" d="M39.329,27.3V0H32.3V32.154a1.742,1.742,0,0,0,1.8,1.8h19.91L56.973,27.3ZM26.979,55.867c-12.062,0-18.542-6.191-18.542-19.226V0H.863V37.447c0,16,9.278,25.614,23.956,25.614H40.774l3.24-7.194ZM29.686,41.4c-3.7,0-5.673-1.8-5.673-5.567V0h-7.3V36.109c0,7.817,4.593,12.305,12.609,12.305H47.436L50.585,41.4Z" fill="#222221"/>
    <path id="Tracé_22107" data-name="Tracé 22107" d="M11.212,106.895c6.821,0,10.758-3.624,10.758-10.991V79.222H17.8v16.76c0,4.677-2.066,7.133-6.587,7.133-4.482,0-6.665-2.456-6.665-7.133V79.222H.376V95.9c0,7.367,3.976,10.991,10.836,10.991m15.24-.389h3.9l.039-11.187c0-3.235,1.87-5.222,4.911-5.222,2.923,0,4.482,1.792,4.482,5.222v11.187h3.9V94.462c0-4.717-2.378-7.835-6.977-7.835a8.034,8.034,0,0,0-6.353,2.768V87.017h-3.9Zm21.788,0h3.9V87.018h-3.9Zm13.8,0h4.911l7.4-19.489H70.145l-5.613,16.215-5.69-16.215h-4.21ZM50.228,83.7a2.436,2.436,0,1,0-2.417-2.455A2.366,2.366,0,0,0,50.228,83.7m35.079,23.191c4.482,0,8.146-2.455,9-6H90.179c-.7,1.559-2.456,2.689-4.911,2.689-3.352,0-5.457-1.832-5.925-5.379H94.5a11.417,11.417,0,0,0,.117-1.6c0-5.963-3.43-9.978-9.432-9.978-5.886,0-9.861,4.015-9.861,9.978,0,6.471,3.9,10.29,9.978,10.29M79.343,95.047c.468-3.118,2.495-5.106,5.73-5.106,3.274,0,5.574,2.182,5.574,5.106ZM98.52,106.506h3.9V90.525h6.859V87.017h-5.651a4.935,4.935,0,0,0-5.106,5.106Zm20.346.389c5.028,0,8.068-2.143,8.068-6,0-3.352-1.871-5.184-5.379-5.769l-4.482-.74c-1.52-.234-2.339-.975-2.339-2.222,0-1.559,1.6-2.417,3.859-2.417,2.611,0,4.092,1.17,4.248,3.119h3.781c-.195-4.054-2.962-6.276-8.029-6.276-4.833,0-7.484,2.339-7.484,5.73,0,3.274,2.027,4.95,5.34,5.5l4.132.662a2.738,2.738,0,0,1,2.611,2.651c0,1.559-1.637,2.494-4.326,2.494-2.924,0-4.288-1.442-4.522-3h-3.858c.234,3.82,3.469,6.275,8.38,6.275m11.966-.389h3.9V87.018h-3.9Zm13.8,0H149.5V103H143.46V90.525H149.5V87.017H143.46v-6.08h-3.9v20.541a4.84,4.84,0,0,0,5.067,5.028m-11.81-22.8a2.436,2.436,0,1,0-2.416-2.455,2.365,2.365,0,0,0,2.416,2.455m28.57,23.191c4.483,0,8.146-2.455,9-6h-4.132c-.7,1.559-2.455,2.689-4.911,2.689-3.352,0-5.456-1.832-5.924-5.379h15.162a11.417,11.417,0,0,0,.117-1.6c0-5.963-3.43-9.978-9.433-9.978-5.885,0-9.861,4.015-9.861,9.978,0,6.471,3.9,10.29,9.978,10.29m-5.963-11.848c.468-3.118,2.494-5.106,5.729-5.106,3.275,0,5.574,2.182,5.574,5.106Zm4.053-10.174h3.508l3.664-5.651h-4.6ZM10.329,139.224c-3.976,0-6.236-2.923-6.236-6.626s2.3-6.626,6.236-6.626c3.7,0,6.275,2.923,6.275,6.626s-2.455,6.626-6.275,6.626m-.858,3.43c3.158,0,5.574-.974,6.977-3.079v2.689h3.9V114.98h-3.9V125.5a8.726,8.726,0,0,0-6.9-3.118c-5.5,0-9.55,4.17-9.55,10.212s3.937,10.056,9.471,10.056m24.361,0c4.482,0,8.146-2.455,9-6H38.7c-.7,1.558-2.456,2.689-4.911,2.689-3.352,0-5.457-1.832-5.925-5.379H43.03a11.427,11.427,0,0,0,.117-1.6c0-5.963-3.43-9.978-9.432-9.978-5.885,0-9.861,4.015-9.861,9.978,0,6.47,3.9,10.29,9.978,10.29M27.868,130.8c.468-3.118,2.5-5.106,5.73-5.106,3.274,0,5.574,2.183,5.574,5.106Zm27.867,11.459H71.482v-3.585H59.906v-23.7H55.735Zm18.553,0h3.9V122.775h-3.9Zm13.759,0h3.9v-3.585H86.917v-23.7h-3.9v22.295c0,3.118,1.832,4.989,5.028,4.989m-11.771-22.8a2.436,2.436,0,1,0-2.417-2.456,2.367,2.367,0,0,0,2.417,2.456m22.84,22.8h3.9v-3.585H97.986v-23.7h-3.9v22.295c0,3.118,1.832,4.989,5.028,4.989m14.851.39c4.482,0,8.146-2.455,9-6h-4.131c-.7,1.558-2.456,2.689-4.912,2.689-3.351,0-5.456-1.832-5.924-5.379h15.162a11.429,11.429,0,0,0,.117-1.6c0-5.963-3.43-9.978-9.432-9.978-5.886,0-9.862,4.015-9.862,9.978,0,6.47,3.9,10.29,9.979,10.29M108,130.8c.468-3.118,2.5-5.106,5.73-5.106,3.274,0,5.573,2.183,5.573,5.106Z" fill="#222221"/>
  </g>
</svg>
