<svg xmlns="http://www.w3.org/2000/svg" width="42" height="59.791" viewBox="0 0 42 59.791"><path d="M917.208,549.275l-8.8,5.981V527.98h8.8Z" transform="translate(-896.227 -495.464)" fill="#0aa0d9"/><path d="M947,527.98h8.8v27.275l-8.8-5.981Z" transform="translate(-925.999 -495.464)" fill="#00adef"/><path d="M959.661,443.541v14.622L947,465.475V475.1l21-12.124V438.729Z" transform="translate(-925.997 -426.604)" fill="#00adef"/><path d="M855.085,438.729v24.248l21,12.124v-9.627l-12.663-7.311V443.541Z" transform="translate(-855.085 -426.604)" fill="#0aa0d9"/><path d="M876.085,395.286l12.664,7.311,8.337-4.813-21-12.124h0l-21,12.124,8.337,4.813,12.663-7.311" transform="translate(-855.085 -385.66)" fill="#4dc6f5"/><g transform="translate(7.325 8.469)"><path d="M900.8,438.5l13.658-7.885h0L900.8,422.728l-13.658,7.885Z" transform="translate(-887.147 -422.728)" fill="#f2f2f2"/><path d="M887.147,457.238v15.77l13.658,7.885v-15.77Z" transform="translate(-887.147 -449.353)" fill="#ccc"/><path d="M960.579,457.238l-13.659,7.885v15.77l13.658-7.885Z" transform="translate(-933.263 -449.353)" fill="#fff"/></g></svg>