<svg xmlns="http://www.w3.org/2000/svg" width="45.973" height="25.031" viewBox="0 0 45.973 25.031"><path d="M1366.424,281.229a8.416,8.416,0,0,1-5.992-2.476l-3.057-3.377,5.136-5.136,3.057,3.377a1.225,1.225,0,0,0,1.712,0l15.005-15,5.135,5.136-15,15A8.415,8.415,0,0,1,1366.424,281.229Z" transform="translate(-1342.862 -257.198)" fill="#005e7a"/><path d="M1366.424,281.229a8.415,8.415,0,0,0,5.991-2.476l15-15-5.135-5.136-15.005,15a1.225,1.225,0,0,1-1.712,0l-3.057-3.377-5.136,5.136,3.057,3.377a8.416,8.416,0,0,0,5.992,2.476m0,1a9.409,9.409,0,0,1-6.7-2.769l-.034-.036-3.7-4.082,6.552-6.552,3.738,4.129a.212.212,0,0,0,.139.047.2.2,0,0,0,.149-.056l15.712-15.712,6.55,6.55-15.712,15.712A9.408,9.408,0,0,1,1366.424,282.229Z" transform="translate(-1342.862 -257.198)" fill="#fff"/><path d="M1294.177,285.585a8.415,8.415,0,0,1-5.992-2.476l-6.522-6.522,5.135-5.136,6.522,6.522a1.224,1.224,0,0,0,1.712,0l15.005-15,5.135,5.136-15.005,15A8.414,8.414,0,0,1,1294.177,285.585Z" transform="translate(-1281.663 -260.776)" fill="#00aeef"/></svg>